<svg xmlns="http://www.w3.org/2000/svg" viewBox="0 0 300 480" width="300" height="480">
  <defs>
    <linearGradient id="bg0" x1="0%" y1="0%" x2="0%" y2="100%">
      <stop offset="0%" style="stop-color:#1e1b4b"/>
      <stop offset="100%" style="stop-color:#0f0d2e"/>
    </linearGradient>
    <linearGradient id="goldGrad0" x1="0%" y1="0%" x2="100%" y2="100%">
      <stop offset="0%" style="stop-color:#d4a574"/>
      <stop offset="50%" style="stop-color:#f4d5a3"/>
      <stop offset="100%" style="stop-color:#b8956a"/>
    </linearGradient>
  </defs>
  <rect width="300" height="480" fill="url(#bg0)"/>
  <rect x="5" y="5" width="290" height="470" fill="none" stroke="url(#goldGrad0)" stroke-width="3" rx="8"/>
  <rect x="12" y="12" width="276" height="456" fill="none" stroke="url(#goldGrad0)" stroke-width="1" rx="5"/>
  <circle cx="150" cy="240" r="100" fill="none" stroke="#d4a574" stroke-width="0.5" opacity="0.3"/>
  <circle cx="150" cy="240" r="120" fill="none" stroke="#d4a574" stroke-width="0.3" opacity="0.2"/>
  <g fill="#d4a574" opacity="0.6">
    <circle cx="50" cy="80" r="1.5"/><circle cx="250" cy="80" r="1.5"/>
    <circle cx="40" cy="150" r="1"/><circle cx="260" cy="150" r="1"/>
    <circle cx="55" cy="380" r="1"/><circle cx="245" cy="380" r="1"/>
    <circle cx="45" cy="430" r="1.5"/><circle cx="255" cy="430" r="1.5"/>
  </g>
  <text x="150" y="35" text-anchor="middle" fill="#d4a574" font-family="serif" font-size="24" font-weight="bold">00</text>
  <text x="150" y="95" text-anchor="middle" fill="#d4a574" font-family="serif" font-size="28" font-weight="bold">愚者</text>
  <text x="150" y="385" text-anchor="middle" fill="#d4a574" font-family="serif" font-size="22">THE FOOL</text>
  <text x="150" y="410" text-anchor="middle" fill="#d4a574" font-family="serif" font-size="11" opacity="0.7">MAJOR ARCANA</text>
  <g transform="translate(150, 250)">
    <polygon points="0,-45 12,-15 42,-15 18,5 27,35 0,18 -27,35 -18,5 -42,-15 -12,-15" fill="none" stroke="#d4a574" stroke-width="2">
      <animateTransform attributeName="transform" type="rotate" from="0" to="360" dur="20s" repeatCount="indefinite"/>
    </polygon>
    <polygon points="0,-28 8,-9 28,-9 12,3 18,23 0,12 -18,23 -12,3 -28,-9 -8,-9" fill="#d4a574" opacity="0.2">
      <animateTransform attributeName="transform" type="rotate" from="0" to="360" dur="20s" repeatCount="indefinite"/>
    </polygon>
  </g>
  <path d="M150,130 L150,180" stroke="#d4a574" stroke-width="0.5" opacity="0.5"/>
  <path d="M120,155 L180,155" stroke="#d4a574" stroke-width="0.5" opacity="0.5"/>
  <circle cx="150" cy="155" r="3" fill="#d4a574"/>
</svg>