<svg xmlns="http://www.w3.org/2000/svg" viewBox="0 0 300 480" width="300" height="480">
  <defs>
    <linearGradient id="bg2" x1="0%" y1="0%" x2="0%" y2="100%">
      <stop offset="0%" style="stop-color:#1e1b4b"/>
      <stop offset="100%" style="stop-color:#0f0d2e"/>
    </linearGradient>
    <linearGradient id="goldGrad2" x1="0%" y1="0%" x2="100%" y2="100%">
      <stop offset="0%" style="stop-color:#d4a574"/>
      <stop offset="50%" style="stop-color:#f4d5a3"/>
      <stop offset="100%" style="stop-color:#b8956a"/>
    </linearGradient>
  </defs>
  <rect width="300" height="480" fill="url(#bg2)"/>
  <rect x="5" y="5" width="290" height="470" fill="none" stroke="url(#goldGrad2)" stroke-width="3" rx="8"/>
  <rect x="12" y="12" width="276" height="456" fill="none" stroke="url(#goldGrad2)" stroke-width="1" rx="5"/>
  <g fill="#d4a574" opacity="0.6">
    <circle cx="55" cy="60" r="1.5"/><circle cx="245" cy="60" r="1.5"/>
    <circle cx="70" cy="440" r="1.5"/><circle cx="230" cy="440" r="1.5"/>
  </g>
  <text x="150" y="35" text-anchor="middle" fill="#d4a574" font-family="serif" font-size="24" font-weight="bold">02</text>
  <text x="150" y="95" text-anchor="middle" fill="#d4a574" font-family="serif" font-size="28" font-weight="bold">女祭司</text>
  <text x="150" y="385" text-anchor="middle" fill="#d4a574" font-family="serif" font-size="22">THE HIGH PRIESTESS</text>
  <text x="150" y="410" text-anchor="middle" fill="#d4a574" font-family="serif" font-size="11" opacity="0.7">MAJOR ARCANA</text>
  <rect x="95" y="130" width="110" height="230" fill="none" stroke="#d4a574" stroke-width="1" rx="5" opacity="0.4"/>
  <g transform="translate(150, 250)">
    <path d="M0,-40 L40,-20 L40,20 L0,40 L-40,20 L-40,-20 Z" fill="none" stroke="#d4a574" stroke-width="1.5"/>
    <path d="M0,-25 L25,-12 L25,12 L0,25 L-25,12 L-25,-12 Z" fill="none" stroke="#d4a574" stroke-width="1"/>
    <path d="M-30,-45 L-15,-30" stroke="#d4a574" stroke-width="0.5"/>
    <path d="M30,-45 L15,-30" stroke="#d4a574" stroke-width="0.5"/>
    <path d="M-30,45 L-15,30" stroke="#d4a574" stroke-width="0.5"/>
    <path d="M30,45 L15,30" stroke="#d4a574" stroke-width="0.5"/>
  </g>
  <path d="M150,130 L150,170" stroke="#d4a574" stroke-width="0.5" opacity="0.5"/>
  <g transform="translate(150, 390)">
    <path d="M-12,0 A12,12 0 1,1 12,0 A12,12 0 1,1 -12,0" fill="none" stroke="#d4a574" stroke-width="2"/>
    <path d="M-12,0 Q0,-8 12,0" fill="none" stroke="#d4a574" stroke-width="1.5"/>
  </g>
</svg>