<svg xmlns="http://www.w3.org/2000/svg" viewBox="0 0 300 480" width="300" height="480">
  <defs>
    <linearGradient id="bg3" x1="0%" y1="0%" x2="0%" y2="100%">
      <stop offset="0%" style="stop-color:#1e1b4b"/>
      <stop offset="100%" style="stop-color:#0f0d2e"/>
    </linearGradient>
    <linearGradient id="goldGrad3" x1="0%" y1="0%" x2="100%" y2="100%">
      <stop offset="0%" style="stop-color:#d4a574"/>
      <stop offset="50%" style="stop-color:#f4d5a3"/>
      <stop offset="100%" style="stop-color:#b8956a"/>
    </linearGradient>
  </defs>
  <rect width="300" height="480" fill="url(#bg3)"/>
  <rect x="5" y="5" width="290" height="470" fill="none" stroke="url(#goldGrad3)" stroke-width="3" rx="8"/>
  <rect x="12" y="12" width="276" height="456" fill="none" stroke="url(#goldGrad3)" stroke-width="1" rx="5"/>
  <g fill="#d4a574" opacity="0.6">
    <circle cx="60" cy="80" r="2"/><circle cx="240" cy="80" r="2"/>
    <circle cx="55" cy="420" r="1.5"/><circle cx="245" cy="420" r="1.5"/>
    <circle cx="80" cy="200" r="1"/><circle cx="220" cy="200" r="1"/>
  </g>
  <text x="150" y="35" text-anchor="middle" fill="#d4a574" font-family="serif" font-size="24" font-weight="bold">03</text>
  <text x="150" y="95" text-anchor="middle" fill="#d4a574" font-family="serif" font-size="28" font-weight="bold">女皇</text>
  <text x="150" y="385" text-anchor="middle" fill="#d4a574" font-family="serif" font-size="22">THE EMPRESS</text>
  <text x="150" y="410" text-anchor="middle" fill="#d4a574" font-family="serif" font-size="11" opacity="0.7">MAJOR ARCANA</text>
  <g transform="translate(150, 250)">
    <ellipse cx="0" cy="0" rx="50" ry="70" fill="none" stroke="#d4a574" stroke-width="2"/>
    <ellipse cx="0" cy="-10" rx="20" ry="25" fill="none" stroke="#d4a574" stroke-width="1.5"/>
    <circle cx="0" cy="-10" r="12" fill="#d4a574" opacity="0.3"/>
    <text x="0" y="5" text-anchor="middle" fill="#d4a574" font-size="40" font-weight="bold">♀</text>
    <path d="M-30,40 L0,30 L30,40" fill="none" stroke="#d4a574" stroke-width="1" opacity="0.6"/>
    <circle cx="-35" cy="20" r="3" fill="#d4a574"/>
    <circle cx="35" cy="20" r="3" fill="#d4a574"/>
    <circle cx="-35" cy="-10" r="2" fill="#d4a574"/>
    <circle cx="35" cy="-10" r="2" fill="#d4a574"/>
  </g>
  <path d="M150,130 L150,170" stroke="#d4a574" stroke-width="0.5" opacity="0.5"/>
  <path d="M120,140 L180,140" stroke="#d4a574" stroke-width="0.5" opacity="0.5"/>
  <path d="M100,355 L200,355" stroke="#d4a574" stroke-width="0.5" opacity="0.3"/>
</svg>