<svg xmlns="http://www.w3.org/2000/svg" viewBox="0 0 300 480" width="300" height="480">
  <defs>
    <linearGradient id="bg5" x1="0%" y1="0%" x2="0%" y2="100%">
      <stop offset="0%" style="stop-color:#1e1b4b"/>
      <stop offset="100%" style="stop-color:#0f0d2e"/>
    </linearGradient>
    <linearGradient id="goldGrad5" x1="0%" y1="0%" x2="100%" y2="100%">
      <stop offset="0%" style="stop-color:#d4a574"/>
      <stop offset="50%" style="stop-color:#f4d5a3"/>
      <stop offset="100%" style="stop-color:#b8956a"/>
    </linearGradient>
  </defs>
  <rect width="300" height="480" fill="url(#bg5)"/>
  <rect x="5" y="5" width="290" height="470" fill="none" stroke="url(#goldGrad5)" stroke-width="3" rx="8"/>
  <rect x="12" y="12" width="276" height="456" fill="none" stroke="url(#goldGrad5)" stroke-width="1" rx="5"/>
  <g fill="#d4a574" opacity="0.6">
    <circle cx="55" cy="70" r="2"/><circle cx="245" cy="70" r="2"/>
    <circle cx="60" cy="420" r="1.5"/><circle cx="240" cy="420" r="1.5"/>
    <circle cx="80" cy="180" r="1"/><circle cx="220" cy="180" r="1"/>
  </g>
  <text x="150" y="35" text-anchor="middle" fill="#d4a574" font-family="serif" font-size="24" font-weight="bold">05</text>
  <text x="150" y="95" text-anchor="middle" fill="#d4a574" font-family="serif" font-size="28" font-weight="bold">教皇</text>
  <text x="150" y="385" text-anchor="middle" fill="#d4a574" font-family="serif" font-size="22">THE HIEROPHANT</text>
  <text x="150" y="410" text-anchor="middle" fill="#d4a574" font-family="serif" font-size="11" opacity="0.7">MAJOR ARCANA</text>
  <g transform="translate(150, 250)">
    <ellipse cx="0" cy="0" rx="55" ry="65" fill="none" stroke="#d4a574" stroke-width="2"/>
    <ellipse cx="0" cy="-10" rx="30" ry="35" fill="none" stroke="#d4a574" stroke-width="1"/>
    <path d="M-20,-40 L0,-60 L20,-40" fill="none" stroke="#d4a574" stroke-width="1.5"/>
    <path d="M-12,-40 L-12,-55 L12,-55 L12,-40" fill="none" stroke="#d4a574" stroke-width="1"/>
    <text x="0" y="10" text-anchor="middle" fill="#d4a574" font-size="32" font-weight="bold">✡</text>
    <circle cx="0" cy="45" r="4" fill="none" stroke="#d4a574" stroke-width="1"/>
    <circle cx="0" cy="55" r="4" fill="none" stroke="#d4a574" stroke-width="1"/>
  </g>
  <path d="M150,130 L150,170" stroke="#d4a574" stroke-width="0.5" opacity="0.5"/>
  <path d="M115,340 L185,340" stroke="#d4a574" stroke-width="0.5" opacity="0.4"/>
  <circle cx="100" cy="340" r="3" fill="none" stroke="#d4a574"/>
  <circle cx="200" cy="340" r="3" fill="none" stroke="#d4a574"/>
  <circle cx="100" cy="360" r="3" fill="none" stroke="#d4a574"/>
  <circle cx="200" cy="360" r="3" fill="none" stroke="#d4a574"/>
</svg>