<svg xmlns="http://www.w3.org/2000/svg" viewBox="0 0 300 480" width="300" height="480">
  <defs>
    <linearGradient id="bg7" x1="0%" y1="0%" x2="0%" y2="100%">
      <stop offset="0%" style="stop-color:#1e1b4b"/>
      <stop offset="100%" style="stop-color:#0f0d2e"/>
    </linearGradient>
    <linearGradient id="goldGrad7" x1="0%" y1="0%" x2="100%" y2="100%">
      <stop offset="0%" style="stop-color:#d4a574"/>
      <stop offset="50%" style="stop-color:#f4d5a3"/>
      <stop offset="100%" style="stop-color:#b8956a"/>
    </linearGradient>
  </defs>
  <rect width="300" height="480" fill="url(#bg7)"/>
  <rect x="5" y="5" width="290" height="470" fill="none" stroke="url(#goldGrad7)" stroke-width="3" rx="8"/>
  <rect x="12" y="12" width="276" height="456" fill="none" stroke="url(#goldGrad7)" stroke-width="1" rx="5"/>
  <g fill="#d4a574" opacity="0.6">
    <circle cx="50" cy="65" r="2"/><circle cx="250" cy="65" r="2"/>
    <circle cx="60" cy="430" r="1.5"/><circle cx="240" cy="430" r="1.5"/>
  </g>
  <text x="150" y="35" text-anchor="middle" fill="#d4a574" font-family="serif" font-size="24" font-weight="bold">07</text>
  <text x="150" y="95" text-anchor="middle" fill="#d4a574" font-family="serif" font-size="28" font-weight="bold">战车</text>
  <text x="150" y="385" text-anchor="middle" fill="#d4a574" font-family="serif" font-size="22">THE CHARIOT</text>
  <text x="150" y="410" text-anchor="middle" fill="#d4a574" font-family="serif" font-size="11" opacity="0.7">MAJOR ARCANA</text>
  <g transform="translate(150, 250)">
    <path d="M-30,-20 L-30,30 L-15,45 L15,45 L30,30 L30,-20" fill="none" stroke="#d4a574" stroke-width="2"/>
    <path d="M-30,-20 L0,-40 L30,-20" fill="none" stroke="#d4a574" stroke-width="1.5"/>
    <path d="M-25,-50 L25,-50" stroke="#d4a574" stroke-width="1"/>
    <path d="M0,-50 L0,-65" stroke="#d4a574" stroke-width="1"/>
    <circle cx="0" cy="-65" r="4" fill="#d4a574"/>
    <line x1="-25" y1="45" x2="-30" y2="55" stroke="#d4a574" stroke-width="1"/>
    <line x1="25" y1="45" x2="30" y2="55" stroke="#d4a574" stroke-width="1"/>
    <text x="0" y="10" text-anchor="middle" fill="#d4a574" font-size="28" font-weight="bold">♋</text>
  </g>
  <path d="M150,130 L150,165" stroke="#d4a574" stroke-width="0.5" opacity="0.5"/>
  <path d="M120,145 L180,145" stroke="#d4a574" stroke-width="0.5" opacity="0.5"/>
  <path d="M100,365 L200,365" stroke="#d4a574" stroke-width="0.5" opacity="0.3"/>
  <line x1="115" y1="380" x2="135" y2="365" stroke="#d4a574" stroke-width="0.5" opacity="0.5"/>
  <line x1="185" y1="380" x2="165" y2="365" stroke="#d4a574" stroke-width="0.5" opacity="0.5"/>
</svg>