<svg xmlns="http://www.w3.org/2000/svg" viewBox="0 0 300 480" width="300" height="480">
  <defs>
    <linearGradient id="bg8" x1="0%" y1="0%" x2="0%" y2="100%">
      <stop offset="0%" style="stop-color:#1e1b4b"/>
      <stop offset="100%" style="stop-color:#0f0d2e"/>
    </linearGradient>
    <linearGradient id="goldGrad8" x1="0%" y1="0%" x2="100%" y2="100%">
      <stop offset="0%" style="stop-color:#d4a574"/>
      <stop offset="50%" style="stop-color:#f4d5a3"/>
      <stop offset="100%" style="stop-color:#b8956a"/>
    </linearGradient>
  </defs>
  <rect width="300" height="480" fill="url(#bg8)"/>
  <rect x="5" y="5" width="290" height="470" fill="none" stroke="url(#goldGrad8)" stroke-width="3" rx="8"/>
  <rect x="12" y="12" width="276" height="456" fill="none" stroke="url(#goldGrad8)" stroke-width="1" rx="5"/>
  <g fill="#d4a574" opacity="0.6">
    <circle cx="55" cy="70" r="2"/><circle cx="245" cy="70" r="2"/>
    <circle cx="50" cy="420" r="1.5"/><circle cx="250" cy="420" r="1.5"/>
  </g>
  <text x="150" y="35" text-anchor="middle" fill="#d4a574" font-family="serif" font-size="24" font-weight="bold">08</text>
  <text x="150" y="95" text-anchor="middle" fill="#d4a574" font-family="serif" font-size="28" font-weight="bold">力量</text>
  <text x="150" y="385" text-anchor="middle" fill="#d4a574" font-family="serif" font-size="22">STRENGTH</text>
  <text x="150" y="410" text-anchor="middle" fill="#d4a574" font-family="serif" font-size="11" opacity="0.7">MAJOR ARCANA</text>
  <g transform="translate(150, 250)">
    <ellipse cx="0" cy="0" rx="45" ry="60" fill="none" stroke="#d4a574" stroke-width="2"/>
    <ellipse cx="0" cy="0" rx="30" ry="45" fill="none" stroke="#d4a574" stroke-width="1"/>
    <circle cx="0" cy="-35" r="8" fill="none" stroke="#d4a574" stroke-width="1.5"/>
    <text x="0" y="0" text-anchor="middle" fill="#d4a574" font-size="36" font-weight="bold">♌</text>
    <path d="M-10,60 Q0,80 10,60" fill="none" stroke="#d4a574" stroke-width="1.5"/>
    <path d="M-20,55 L0,75 L20,55" fill="none" stroke="#d4a574" stroke-width="0.5" opacity="0.6"/>
    <path d="M-35,30 L-45,20" stroke="#d4a574" stroke-width="0.5"/>
    <path d="M35,30 L45,20" stroke="#d4a574" stroke-width="0.5"/>
  </g>
  <path d="M150,135 L150,175" stroke="#d4a574" stroke-width="0.5" opacity="0.5"/>
  <path d="M110,340 L190,340" stroke="#d4a574" stroke-width="0.5" opacity="0.3"/>
  <g transform="translate(150, 250)">
    <path d="M-50,-25 Q-60,0 -50,25" fill="none" stroke="#d4a574" stroke-width="0.5" opacity="0.4"/>
    <path d="M50,-25 Q60,0 50,25" fill="none" stroke="#d4a574" stroke-width="0.5" opacity="0.4"/>
  </g>
</svg>