<svg xmlns="http://www.w3.org/2000/svg" viewBox="0 0 300 480" width="300" height="480">
  <defs>
    <linearGradient id="bg9" x1="0%" y1="0%" x2="0%" y2="100%">
      <stop offset="0%" style="stop-color:#1e1b4b"/>
      <stop offset="100%" style="stop-color:#0f0d2e"/>
    </linearGradient>
    <linearGradient id="goldGrad9" x1="0%" y1="0%" x2="100%" y2="100%">
      <stop offset="0%" style="stop-color:#d4a574"/>
      <stop offset="50%" style="stop-color:#f4d5a3"/>
      <stop offset="100%" style="stop-color:#b8956a"/>
    </linearGradient>
  </defs>
  <rect width="300" height="480" fill="url(#bg9)"/>
  <rect x="5" y="5" width="290" height="470" fill="none" stroke="url(#goldGrad9)" stroke-width="3" rx="8"/>
  <rect x="12" y="12" width="276" height="456" fill="none" stroke="url(#goldGrad9)" stroke-width="1" rx="5"/>
  <g fill="#d4a574" opacity="0.6">
    <circle cx="50" cy="65" r="2"/><circle cx="250" cy="65" r="2"/>
    <circle cx="55" cy="430" r="1.5"/><circle cx="245" cy="430" r="1.5"/>
    <circle cx="75" cy="350" r="1"/><circle cx="225" cy="350" r="1"/>
  </g>
  <text x="150" y="35" text-anchor="middle" fill="#d4a574" font-family="serif" font-size="24" font-weight="bold">09</text>
  <text x="150" y="95" text-anchor="middle" fill="#d4a574" font-family="serif" font-size="28" font-weight="bold">隐士</text>
  <text x="150" y="385" text-anchor="middle" fill="#d4a574" font-family="serif" font-size="22">THE HERMIT</text>
  <text x="150" y="410" text-anchor="middle" fill="#d4a574" font-family="serif" font-size="11" opacity="0.7">MAJOR ARCANA</text>
  <g transform="translate(150, 250)">
    <rect x="-35" y="-55" width="70" height="110" fill="none" stroke="#d4a574" stroke-width="2" rx="5"/>
    <rect x="-25" y="-45" width="50" height="90" fill="none" stroke="#d4a574" stroke-width="1"/>
    <rect x="-15" y="-55" width="30" height="5" fill="#d4a574"/>
    <circle cx="0" cy="-35" r="10" fill="none" stroke="#d4a574" stroke-width="1.5"/>
    <circle cx="0" cy="-35" r="6" fill="#d4a574" opacity="0.5"/>
    <path d="M-25,50 L0,70 L25,50" fill="none" stroke="#d4a574" stroke-width="1"/>
    <line x1="0" y1="-65" x2="0" y2="-85" stroke="#d4a574" stroke-width="2"/>
    <line x1="-8" y1="-80" x2="8" y2="-80" stroke="#d4a574" stroke-width="1.5"/>
    <line x1="0" y1="-95" x2="0" y2="-110" stroke="#d4a574" stroke-width="0.5"/>
    <rect x="-6" y="-105" width="12" height="15" fill="none" stroke="#d4a574" stroke-width="1"/>
  </g>
  <path d="M150,135 L150,175" stroke="#d4a574" stroke-width="0.5" opacity="0.5"/>
  <polygon points="90,120 95,130 85,130" fill="#d4a574" opacity="0.5"/>
  <polygon points="210,120 215,130 205,130" fill="#d4a574" opacity="0.5"/>
</svg>