<svg xmlns="http://www.w3.org/2000/svg" viewBox="0 0 300 480" width="300" height="480">
  <defs>
    <linearGradient id="bg10" x1="0%" y1="0%" x2="0%" y2="100%">
      <stop offset="0%" style="stop-color:#1e1b4b"/>
      <stop offset="100%" style="stop-color:#0f0d2e"/>
    </linearGradient>
    <linearGradient id="goldGrad10" x1="0%" y1="0%" x2="100%" y2="100%">
      <stop offset="0%" style="stop-color:#d4a574"/>
      <stop offset="50%" style="stop-color:#f4d5a3"/>
      <stop offset="100%" style="stop-color:#b8956a"/>
    </linearGradient>
  </defs>
  <rect width="300" height="480" fill="url(#bg10)"/>
  <rect x="5" y="5" width="290" height="470" fill="none" stroke="url(#goldGrad10)" stroke-width="3" rx="8"/>
  <rect x="12" y="12" width="276" height="456" fill="none" stroke="url(#goldGrad10)" stroke-width="1" rx="5"/>
  <g fill="#d4a574" opacity="0.6">
    <circle cx="60" cy="70" r="2"/><circle cx="240" cy="70" r="2"/>
    <circle cx="55" cy="430" r="1.5"/><circle cx="245" cy="430" r="1.5"/>
  </g>
  <text x="150" y="35" text-anchor="middle" fill="#d4a574" font-family="serif" font-size="24" font-weight="bold">10</text>
  <text x="150" y="95" text-anchor="middle" fill="#d4a574" font-family="serif" font-size="28" font-weight="bold">命运之轮</text>
  <text x="150" y="385" text-anchor="middle" fill="#d4a574" font-family="serif" font-size="22">WHEEL OF FORTUNE</text>
  <text x="150" y="410" text-anchor="middle" fill="#d4a574" font-family="serif" font-size="11" opacity="0.7">MAJOR ARCANA</text>
  <g transform="translate(150, 250)">
    <circle cx="0" cy="0" r="75" fill="none" stroke="#d4a574" stroke-width="2"/>
    <circle cx="0" cy="0" r="60" fill="none" stroke="#d4a574" stroke-width="1"/>
    <circle cx="0" cy="0" r="25" fill="none" stroke="#d4a574" stroke-width="2"/>
    <g>
      <line x1="0" y1="-75" x2="0" y2="-60" stroke="#d4a574" stroke-width="2"/>
      <line x1="0" y1="75" x2="0" y2="60" stroke="#d4a574" stroke-width="2"/>
      <line x1="-75" y1="0" x2="-60" y2="0" stroke="#d4a574" stroke-width="2"/>
      <line x1="75" y1="0" x2="60" y2="0" stroke="#d4a574" stroke-width="2"/>
    </g>
    <g>
      <line x1="-53" y1="-53" x2="-42" y2="-42" stroke="#d4a574" stroke-width="1.5"/>
      <line x1="53" y1="-53" x2="42" y2="-42" stroke="#d4a574" stroke-width="1.5"/>
      <line x1="-53" y1="53" x2="-42" y2="42" stroke="#d4a574" stroke-width="1.5"/>
      <line x1="53" y1="53" x2="42" y2="42" stroke="#d4a574" stroke-width="1.5"/>
    </g>
    <text x="0" y="5" text-anchor="middle" fill="#d4a574" font-size="32" font-weight="bold">☸</text>
  </g>
  <path d="M150,130 L150,170" stroke="#d4a574" stroke-width="0.5" opacity="0.5"/>
  <path d="M90,340 L210,340" stroke="#d4a574" stroke-width="0.5" opacity="0.3"/>
  <path d="M100,360 L200,360" stroke="#d4a574" stroke-width="0.5" opacity="0.3"/>
</svg>