<svg xmlns="http://www.w3.org/2000/svg" viewBox="0 0 300 480" width="300" height="480">
  <defs>
    <linearGradient id="bg12" x1="0%" y1="0%" x2="0%" y2="100%">
      <stop offset="0%" style="stop-color:#1e1b4b"/>
      <stop offset="100%" style="stop-color:#0f0d2e"/>
    </linearGradient>
    <linearGradient id="goldGrad12" x1="0%" y1="0%" x2="100%" y2="100%">
      <stop offset="0%" style="stop-color:#d4a574"/>
      <stop offset="50%" style="stop-color:#f4d5a3"/>
      <stop offset="100%" style="stop-color:#b8956a"/>
    </linearGradient>
  </defs>
  <rect width="300" height="480" fill="url(#bg12)"/>
  <rect x="5" y="5" width="290" height="470" fill="none" stroke="url(#goldGrad12)" stroke-width="3" rx="8"/>
  <rect x="12" y="12" width="276" height="456" fill="none" stroke="url(#goldGrad12)" stroke-width="1" rx="5"/>
  <g fill="#d4a574" opacity="0.6">
    <circle cx="60" cy="75" r="2"/><circle cx="240" cy="75" r="2"/>
    <circle cx="55" cy="435" r="1.5"/><circle cx="245" cy="435" r="1.5"/>
  </g>
  <text x="150" y="35" text-anchor="middle" fill="#d4a574" font-family="serif" font-size="24" font-weight="bold">12</text>
  <text x="150" y="95" text-anchor="middle" fill="#d4a574" font-family="serif" font-size="28" font-weight="bold">倒吊人</text>
  <text x="150" y="385" text-anchor="middle" fill="#d4a574" font-family="serif" font-size="22">THE HANGED MAN</text>
  <text x="150" y="410" text-anchor="middle" fill="#d4a574" font-family="serif" font-size="11" opacity="0.7">MAJOR ARCANA</text>
  <g transform="translate(150, 380)">
    <line x1="0" y1="0" x2="0" y2="-50" stroke="#d4a574" stroke-width="2"/>
    <line x1="-30" y1="0" x2="30" y2="0" stroke="#d4a574" stroke-width="2"/>
  </g>
  <g transform="translate(150, 210)">
    <circle cx="0" cy="-25" r="20" fill="none" stroke="#d4a574" stroke-width="2"/>
    <circle cx="0" cy="-25" r="14" fill="#d4a574" opacity="0.2"/>
    <circle cx="0" cy="-25" r="8" fill="none" stroke="#d4a574" stroke-width="1"/>
    <line x1="0" y1="-5" x2="0" y2="35" stroke="#d4a574" stroke-width="2"/>
    <line x1="-15" y1="5" x2="15" y2="5" stroke="#d4a574" stroke-width="1.5"/>
    <line x1="0" y1="35" x2="-15" y2="50" stroke="#d4a574" stroke-width="1.5"/>
    <line x1="0" y1="35" x2="15" y2="50" stroke="#d4a574" stroke-width="1.5"/>
    <line x1="0" y1="70" x2="-18" y2="90" stroke="#d4a574" stroke-width="1"/>
    <line x1="0" y1="70" x2="18" y2="90" stroke="#d4a574" stroke-width="1"/>
  </g>
  <path d="M150,130 L150,160" stroke="#d4a574" stroke-width="0.5" opacity="0.5"/>
  <path d="M110,140 L190,140" stroke="#d4a574" stroke-width="0.5" opacity="0.5"/>
  <g transform="translate(150, 330)">
    <ellipse cx="0" cy="0" rx="35" ry="8" fill="none" stroke="#d4a574" stroke-width="0.5" opacity="0.4"/>
  </g>
</svg>