<svg xmlns="http://www.w3.org/2000/svg" viewBox="0 0 300 480" width="300" height="480">
  <defs>
    <linearGradient id="bg13" x1="0%" y1="0%" x2="0%" y2="100%">
      <stop offset="0%" style="stop-color:#1e1b4b"/>
      <stop offset="100%" style="stop-color:#0f0d2e"/>
    </linearGradient>
    <linearGradient id="goldGrad13" x1="0%" y1="0%" x2="100%" y2="100%">
      <stop offset="0%" style="stop-color:#d4a574"/>
      <stop offset="50%" style="stop-color:#f4d5a3"/>
      <stop offset="100%" style="stop-color:#b8956a"/>
    </linearGradient>
  </defs>
  <rect width="300" height="480" fill="url(#bg13)"/>
  <rect x="5" y="5" width="290" height="470" fill="none" stroke="url(#goldGrad13)" stroke-width="3" rx="8"/>
  <rect x="12" y="12" width="276" height="456" fill="none" stroke="url(#goldGrad13)" stroke-width="1" rx="5"/>
  <g fill="#d4a574" opacity="0.6">
    <circle cx="55" cy="70" r="2"/><circle cx="245" cy="70" r="2"/>
    <circle cx="60" cy="430" r="1.5"/><circle cx="240" cy="430" r="1.5"/>
  </g>
  <text x="150" y="35" text-anchor="middle" fill="#d4a574" font-family="serif" font-size="24" font-weight="bold">13</text>
  <text x="150" y="95" text-anchor="middle" fill="#d4a574" font-family="serif" font-size="28" font-weight="bold">死神</text>
  <text x="150" y="385" text-anchor="middle" fill="#d4a574" font-family="serif" font-size="22">DEATH</text>
  <text x="150" y="410" text-anchor="middle" fill="#d4a574" font-family="serif" font-size="11" opacity="0.7">MAJOR ARCANA</text>
  <g transform="translate(150, 260)">
    <ellipse cx="0" cy="0" rx="55" ry="70" fill="none" stroke="#d4a574" stroke-width="2"/>
    <path d="M0,-70 L0,70" stroke="#d4a574" stroke-width="0.5"/>
    <path d="M-55,0 L55,0" stroke="#d4a574" stroke-width="0.5"/>
    <text x="0" y="10" text-anchor="middle" fill="#d4a574" font-size="44" font-weight="bold">♏</text>
    <path d="M-40,-50 Q-20,-65 0,-60 Q20,-65 40,-50" fill="none" stroke="#d4a574" stroke-width="0.5" opacity="0.5"/>
    <circle cx="-35" cy="-30" r="2" fill="#d4a574" opacity="0.6"/>
    <circle cx="35" cy="-30" r="2" fill="#d4a574" opacity="0.6"/>
    <circle cx="-30" cy="40" r="2" fill="#d4a574" opacity="0.6"/>
    <circle cx="30" cy="40" r="2" fill="#d4a574" opacity="0.6"/>
  </g>
  <path d="M150,130 L150,165" stroke="#d4a574" stroke-width="0.5" opacity="0.5"/>
  <path d="M120,380 L180,380" stroke="#d4a574" stroke-width="0.5" opacity="0.5"/>
</svg>