<svg xmlns="http://www.w3.org/2000/svg" viewBox="0 0 300 480" width="300" height="480">
  <defs>
    <linearGradient id="bg14" x1="0%" y1="0%" x2="0%" y2="100%">
      <stop offset="0%" style="stop-color:#1e1b4b"/>
      <stop offset="100%" style="stop-color:#0f0d2e"/>
    </linearGradient>
    <linearGradient id="goldGrad14" x1="0%" y1="0%" x2="100%" y2="100%">
      <stop offset="0%" style="stop-color:#d4a574"/>
      <stop offset="50%" style="stop-color:#f4d5a3"/>
      <stop offset="100%" style="stop-color:#b8956a"/>
    </linearGradient>
  </defs>
  <rect width="300" height="480" fill="url(#bg14)"/>
  <rect x="5" y="5" width="290" height="470" fill="none" stroke="url(#goldGrad14)" stroke-width="3" rx="8"/>
  <rect x="12" y="12" width="276" height="456" fill="none" stroke="url(#goldGrad14)" stroke-width="1" rx="5"/>
  <g fill="#d4a574" opacity="0.6">
    <circle cx="50" cy="65" r="2"/><circle cx="250" cy="65" r="2"/>
    <circle cx="55" cy="430" r="1.5"/><circle cx="245" cy="430" r="1.5"/>
  </g>
  <text x="150" y="35" text-anchor="middle" fill="#d4a574" font-family="serif" font-size="24" font-weight="bold">14</text>
  <text x="150" y="95" text-anchor="middle" fill="#d4a574" font-family="serif" font-size="28" font-weight="bold">节制</text>
  <text x="150" y="385" text-anchor="middle" fill="#d4a574" font-family="serif" font-size="22">TEMPERANCE</text>
  <text x="150" y="410" text-anchor="middle" fill="#d4a574" font-family="serif" font-size="11" opacity="0.7">MAJOR ARCANA</text>
  <g transform="translate(150, 260)">
    <ellipse cx="0" cy="0" rx="50" ry="65" fill="none" stroke="#d4a574" stroke-width="2"/>
    <path d="M-30,-30 L-30,30" stroke="#d4a574" stroke-width="2" stroke-linecap="round"/>
    <path d="M-30,-30 L-20,-15" stroke="#d4a574" stroke-width="1"/>
    <path d="M-20,-30 L-20,-5" stroke="#d4a574" stroke-width="1"/>
    <ellipse cx="-20" cy="-5" rx="8" ry="12" fill="none" stroke="#d4a574" stroke-width="1"/>
    <path d="M30,-30 L30,30" stroke="#d4a574" stroke-width="2" stroke-linecap="round"/>
    <path d="M30,-30 L20,-15" stroke="#d4a574" stroke-width="1"/>
    <path d="M20,-30 L20,-5" stroke="#d4a574" stroke-width="1"/>
    <ellipse cx="20" cy="-5" rx="8" ry="12" fill="none" stroke="#d4a574" stroke-width="1"/>
    <path d="M-20,15 Q0,0 20,15" fill="none" stroke="#d4a574" stroke-width="1.5"/>
    <path d="M-20,15 Q0,30 20,15" fill="none" stroke="#d4a574" stroke-width="0.5" opacity="0.6"/>
    <circle cx="0" cy="35" r="5" fill="#d4a574" opacity="0.6"/>
  </g>
  <path d="M150,145 L150,175" stroke="#d4a574" stroke-width="0.5" opacity="0.5"/>
  <path d="M110,365 L190,365" stroke="#d4a574" stroke-width="0.5" opacity="0.3"/>
  <circle cx="130" cy="375" r="2" fill="#d4a574" opacity="0.5"/>
  <circle cx="170" cy="375" r="2" fill="#d4a574" opacity="0.5"/>
</svg>