<svg xmlns="http://www.w3.org/2000/svg" viewBox="0 0 300 480" width="300" height="480">
  <defs>
    <linearGradient id="bg15" x1="0%" y1="0%" x2="0%" y2="100%">
      <stop offset="0%" style="stop-color:#1e1b4b"/>
      <stop offset="100%" style="stop-color:#0f0d2e"/>
    </linearGradient>
    <linearGradient id="goldGrad15" x1="0%" y1="0%" x2="100%" y2="100%">
      <stop offset="0%" style="stop-color:#d4a574"/>
      <stop offset="50%" style="stop-color:#f4d5a3"/>
      <stop offset="100%" style="stop-color:#b8956a"/>
    </linearGradient>
  </defs>
  <rect width="300" height="480" fill="url(#bg15)"/>
  <rect x="5" y="5" width="290" height="470" fill="none" stroke="url(#goldGrad15)" stroke-width="3" rx="8"/>
  <rect x="12" y="12" width="276" height="456" fill="none" stroke="url(#goldGrad15)" stroke-width="1" rx="5"/>
  <g fill="#d4a574" opacity="0.6">
    <circle cx="55" cy="70" r="2"/><circle cx="245" cy="70" r="2"/>
    <circle cx="50" cy="420" r="1.5"/><circle cx="250" cy="420" r="1.5"/>
  </g>
  <text x="150" y="35" text-anchor="middle" fill="#d4a574" font-family="serif" font-size="24" font-weight="bold">15</text>
  <text x="150" y="95" text-anchor="middle" fill="#d4a574" font-family="serif" font-size="28" font-weight="bold">恶魔</text>
  <text x="150" y="385" text-anchor="middle" fill="#d4a574" font-family="serif" font-size="22">THE DEVIL</text>
  <text x="150" y="410" text-anchor="middle" fill="#d4a574" font-family="serif" font-size="11" opacity="0.7">MAJOR ARCANA</text>
  <g transform="translate(150, 260)">
    <path d="M-45,-15 L-45,50 L-30,60 L-30,20 L30,20 L30,60 L45,50 L45,-15 Z" fill="none" stroke="#d4a574" stroke-width="2"/>
    <path d="M-45,-15 L-30,-30 L30,-30 L45,-15" fill="none" stroke="#d4a574" stroke-width="1.5"/>
    <rect x="-22" y="-25" width="44" height="35" fill="none" stroke="#d4a574" stroke-width="1"/>
    <text x="0" y="0" text-anchor="middle" fill="#d4a574" font-size="28" font-weight="bold">♑</text>
    <circle cx="-35" cy="35" r="4" fill="none" stroke="#d4a574" stroke-width="1"/>
    <circle cx="35" cy="35" r="4" fill="none" stroke="#d4a574" stroke-width="1"/>
    <line x1="-31" y1="35" x2="-20" y2="35" stroke="#d4a574" stroke-width="0.5"/>
    <line x1="31" y1="35" x2="20" y2="35" stroke="#d4a574" stroke-width="0.5"/>
    <circle cx="-35" cy="50" r="4" fill="none" stroke="#d4a574" stroke-width="1"/>
    <circle cx="35" cy="50" r="4" fill="none" stroke="#d4a574" stroke-width="1"/>
  </g>
  <path d="M150,130 L150,165" stroke="#d4a574" stroke-width="0.5" opacity="0.5"/>
  <path d="M110,375 L190,375" stroke="#d4a574" stroke-width="0.5" opacity="0.3"/>
</svg>