<svg xmlns="http://www.w3.org/2000/svg" viewBox="0 0 300 480" width="300" height="480">
  <defs>
    <linearGradient id="bg16" x1="0%" y1="0%" x2="0%" y2="100%">
      <stop offset="0%" style="stop-color:#1e1b4b"/>
      <stop offset="100%" style="stop-color:#0f0d2e"/>
    </linearGradient>
    <linearGradient id="goldGrad16" x1="0%" y1="0%" x2="100%" y2="100%">
      <stop offset="0%" style="stop-color:#d4a574"/>
      <stop offset="50%" style="stop-color:#f4d5a3"/>
      <stop offset="100%" style="stop-color:#b8956a"/>
    </linearGradient>
  </defs>
  <rect width="300" height="480" fill="url(#bg16)"/>
  <rect x="5" y="5" width="290" height="470" fill="none" stroke="url(#goldGrad16)" stroke-width="3" rx="8"/>
  <rect x="12" y="12" width="276" height="456" fill="none" stroke="url(#goldGrad16)" stroke-width="1" rx="5"/>
  <g fill="#d4a574" opacity="0.6">
    <circle cx="55" cy="70" r="2"/><circle cx="245" cy="70" r="2"/>
    <circle cx="60" cy="430" r="1.5"/><circle cx="240" cy="430" r="1.5"/>
  </g>
  <text x="150" y="35" text-anchor="middle" fill="#d4a574" font-family="serif" font-size="24" font-weight="bold">16</text>
  <text x="150" y="95" text-anchor="middle" fill="#d4a574" font-family="serif" font-size="28" font-weight="bold">塔</text>
  <text x="150" y="385" text-anchor="middle" fill="#d4a574" font-family="serif" font-size="22">THE TOWER</text>
  <text x="150" y="410" text-anchor="middle" fill="#d4a574" font-family="serif" font-size="11" opacity="0.7">MAJOR ARCANA</text>
  <g transform="translate(150, 260)">
    <path d="M-25,-60 L-35,60 L35,60 L25,-60 Z" fill="none" stroke="#d4a574" stroke-width="2"/>
    <path d="M-15,-60 L-20,60" stroke="#d4a574" stroke-width="0.5" opacity="0.5"/>
    <path d="M15,-60 L20,60" stroke="#d4a574" stroke-width="0.5" opacity="0.5"/>
    <line x1="-35" y1="-40" x2="35" y2="-40" stroke="#d4a574" stroke-width="1"/>
    <line x1="-30" y1="0" x2="30" y2="0" stroke="#d4a574" stroke-width="1"/>
    <path d="M-30,-65 L-25,-60" stroke="#d4a574" stroke-width="1"/>
    <path d="M30,-65 L25,-60" stroke="#d4a574" stroke-width="1"/>
    <path d="M25,-80 L30,-65 L-30,-65 L-25,-80 Z" fill="none" stroke="#d4a574" stroke-width="2"/>
    <line x1="0" y1="-95" x2="0" y2="-65" stroke="#d4a574" stroke-width="2"/>
    <polygon points="0,-110 -8,-95 8,-95" fill="#d4a574"/>
    <path d="M0,-125 L-5,-105 L5,-105 Z" fill="#d4a574"/>
    <path d="M0,-125 Q0,-115 0,-105" stroke="#d4a574" stroke-width="1" opacity="0.6"/>
    <path d="M20,-60 L20,-40" stroke="#d4a574" stroke-width="1" opacity="0.4"/>
    <path d="M-20,-60 L-20,-40" stroke="#d4a574" stroke-width="1" opacity="0.4"/>
  </g>
  <path d="M150,130 L150,150" stroke="#d4a574" stroke-width="0.5" opacity="0.5"/>
  <path d="M100,375 L200,375" stroke="#d4a574" stroke-width="0.5" opacity="0.3"/>
</svg>