<svg xmlns="http://www.w3.org/2000/svg" viewBox="0 0 300 480" width="300" height="480">
  <defs>
    <linearGradient id="bg17" x1="0%" y1="0%" x2="0%" y2="100%">
      <stop offset="0%" style="stop-color:#1e1b4b"/>
      <stop offset="100%" style="stop-color:#0f0d2e"/>
    </linearGradient>
    <linearGradient id="goldGrad17" x1="0%" y1="0%" x2="100%" y2="100%">
      <stop offset="0%" style="stop-color:#d4a574"/>
      <stop offset="50%" style="stop-color:#f4d5a3"/>
      <stop offset="100%" style="stop-color:#b8956a"/>
    </linearGradient>
  </defs>
  <rect width="300" height="480" fill="url(#bg17)"/>
  <rect x="5" y="5" width="290" height="470" fill="none" stroke="url(#goldGrad17)" stroke-width="3" rx="8"/>
  <rect x="12" y="12" width="276" height="456" fill="none" stroke="url(#goldGrad17)" stroke-width="1" rx="5"/>
  <g fill="#d4a574" opacity="0.6">
    <circle cx="50" cy="65" r="2"/><circle cx="250" cy="65" r="2"/>
    <circle cx="60" cy="435" r="1.5"/><circle cx="240" cy="435" r="1.5"/>
    <circle cx="70" cy="180" r="1.5"/><circle cx="230" cy="180" r="1.5"/>
    <circle cx="80" cy="350" r="1"/><circle cx="220" cy="350" r="1"/>
  </g>
  <text x="150" y="35" text-anchor="middle" fill="#d4a574" font-family="serif" font-size="24" font-weight="bold">17</text>
  <text x="150" y="95" text-anchor="middle" fill="#d4a574" font-family="serif" font-size="28" font-weight="bold">星星</text>
  <text x="150" y="385" text-anchor="middle" fill="#d4a574" font-family="serif" font-size="22">THE STAR</text>
  <text x="150" y="410" text-anchor="middle" fill="#d4a574" font-family="serif" font-size="11" opacity="0.7">MAJOR ARCANA</text>
  <g transform="translate(150, 250)">
    <circle cx="0" cy="0" r="60" fill="none" stroke="#d4a574" stroke-width="1" opacity="0.4"/>
    <circle cx="0" cy="0" r="50" fill="none" stroke="#d4a574" stroke-width="0.5"/>
    <g>
      <polygon points="0,-35 8,-12 30,-12 12,5 18,28 0,15 -18,28 -12,5 -30,-12 -8,-12" fill="none" stroke="#d4a574" stroke-width="2">
        <animateTransform attributeName="transform" type="scale" values="1;1.05;1" dur="3s" repeatCount="indefinite"/>
      </polygon>
      <polygon points="0,-20 5,-7 18,-7 7,3 10,16 0,9 -10,16 -7,3 -18,-7 -5,-7" fill="#d4a574" opacity="0.2"/>
    </g>
    <g>
      <polygon points="0,-18 4,-6 15,-6 6,2 8,13 0,7 -8,13 -6,2 -15,-6 -4,-6" fill="none" stroke="#d4a574" stroke-width="1" transform="translate(45,-30)"/>
      <polygon points="0,-18 4,-6 15,-6 6,2 8,13 0,7 -8,13 -6,2 -15,-6 -4,-6" fill="none" stroke="#d4a574" stroke-width="1" transform="translate(-45,-30)"/>
      <polygon points="0,-15 3,-5 12,-5 5,2 7,10 0,6 -7,10 -5,2 -12,-5 -3,-5" fill="none" stroke="#d4a574" stroke-width="1" transform="translate(50,20)"/>
      <polygon points="0,-15 3,-5 12,-5 5,2 7,10 0,6 -7,10 -5,2 -12,-5 -3,-5" fill="none" stroke="#d4a574" stroke-width="1" transform="translate(-50,20)"/>
    </g>
  </g>
  <path d="M150,140 L150,175" stroke="#d4a574" stroke-width="0.5" opacity="0.5"/>
  <path d="M100,360 L200,360" stroke="#d4a574" stroke-width="0.5" opacity="0.3"/>
</svg>