<svg xmlns="http://www.w3.org/2000/svg" viewBox="0 0 300 480" width="300" height="480">
  <defs>
    <linearGradient id="bg18" x1="0%" y1="0%" x2="0%" y2="100%">
      <stop offset="0%" style="stop-color:#1e1b4b"/>
      <stop offset="100%" style="stop-color:#0f0d2e"/>
    </linearGradient>
    <linearGradient id="goldGrad18" x1="0%" y1="0%" x2="100%" y2="100%">
      <stop offset="0%" style="stop-color:#d4a574"/>
      <stop offset="50%" style="stop-color:#f4d5a3"/>
      <stop offset="100%" style="stop-color:#b8956a"/>
    </linearGradient>
  </defs>
  <rect width="300" height="480" fill="url(#bg18)"/>
  <rect x="5" y="5" width="290" height="470" fill="none" stroke="url(#goldGrad18)" stroke-width="3" rx="8"/>
  <rect x="12" y="12" width="276" height="456" fill="none" stroke="url(#goldGrad18)" stroke-width="1" rx="5"/>
  <g fill="#d4a574" opacity="0.6">
    <circle cx="55" cy="70" r="2"/><circle cx="245" cy="70" r="2"/>
    <circle cx="60" cy="435" r="1.5"/><circle cx="240" cy="435" r="1.5"/>
    <circle cx="75" cy="200" r="1"/><circle cx="225" cy="200" r="1"/>
  </g>
  <text x="150" y="35" text-anchor="middle" fill="#d4a574" font-family="serif" font-size="24" font-weight="bold">18</text>
  <text x="150" y="95" text-anchor="middle" fill="#d4a574" font-family="serif" font-size="28" font-weight="bold">月亮</text>
  <text x="150" y="385" text-anchor="middle" fill="#d4a574" font-family="serif" font-size="22">THE MOON</text>
  <text x="150" y="410" text-anchor="middle" fill="#d4a574" font-family="serif" font-size="11" opacity="0.7">MAJOR ARCANA</text>
  <g transform="translate(150, 260)">
    <path d="M0,-70 A55,55 0 1,1 0,70 A55,55 0 1,1 0,-70" fill="none" stroke="#d4a574" stroke-width="2"/>
    <path d="M0,-55 A40,40 0 1,1 0,55 A40,40 0 1,1 0,-55" fill="none" stroke="#d4a574" stroke-width="1" opacity="0.6"/>
    <path d="M-35,0 A35,20 0 1,1 35,0 A35,20 0 1,1 -35,0" fill="#0f0d2e" stroke="#d4a574" stroke-width="1.5"/>
    <path d="M-25,0 A25,15 0 1,1 25,0 A25,15 0 1,1 -25,0" fill="#1e1b4b"/>
    <g transform="translate(0, 0)">
      <circle cx="-12" cy="-8" r="2" fill="#d4a574" opacity="0.6"/>
      <circle cx="12" cy="-8" r="2" fill="#d4a574" opacity="0.6"/>
      <path d="M-5,2 Q0,8 5,2" fill="none" stroke="#d4a574" stroke-width="1"/>
    </g>
    <text x="0" y="-35" text-anchor="middle" fill="#d4a574" font-size="32" font-weight="bold">☾</text>
  </g>
  <path d="M150,130 L150,165" stroke="#d4a574" stroke-width="0.5" opacity="0.5"/>
  <path d="M100,375 L200,375" stroke="#d4a574" stroke-width="0.5" opacity="0.3"/>
  <path d="M110,390 L190,390" stroke="#d4a574" stroke-width="0.5" opacity="0.2"/>
</svg>