<svg xmlns="http://www.w3.org/2000/svg" viewBox="0 0 300 480" width="300" height="480">
  <defs>
    <linearGradient id="bg19" x1="0%" y1="0%" x2="0%" y2="100%">
      <stop offset="0%" style="stop-color:#1e1b4b"/>
      <stop offset="100%" style="stop-color:#0f0d2e"/>
    </linearGradient>
    <linearGradient id="goldGrad19" x1="0%" y1="0%" x2="100%" y2="100%">
      <stop offset="0%" style="stop-color:#d4a574"/>
      <stop offset="50%" style="stop-color:#f4d5a3"/>
      <stop offset="100%" style="stop-color:#b8956a"/>
    </linearGradient>
  </defs>
  <rect width="300" height="480" fill="url(#bg19)"/>
  <rect x="5" y="5" width="290" height="470" fill="none" stroke="url(#goldGrad19)" stroke-width="3" rx="8"/>
  <rect x="12" y="12" width="276" height="456" fill="none" stroke="url(#goldGrad19)" stroke-width="1" rx="5"/>
  <g fill="#d4a574" opacity="0.6">
    <circle cx="55" cy="70" r="2"/><circle cx="245" cy="70" r="2"/>
    <circle cx="50" cy="430" r="1.5"/><circle cx="250" cy="430" r="1.5"/>
    <circle cx="80" cy="180" r="1"/><circle cx="220" cy="180" r="1"/>
  </g>
  <text x="150" y="35" text-anchor="middle" fill="#d4a574" font-family="serif" font-size="24" font-weight="bold">19</text>
  <text x="150" y="95" text-anchor="middle" fill="#d4a574" font-family="serif" font-size="28" font-weight="bold">太阳</text>
  <text x="150" y="385" text-anchor="middle" fill="#d4a574" font-family="serif" font-size="22">THE SUN</text>
  <text x="150" y="410" text-anchor="middle" fill="#d4a574" font-family="serif" font-size="11" opacity="0.7">MAJOR ARCANA</text>
  <g transform="translate(150, 260)">
    <circle cx="0" cy="0" r="65" fill="none" stroke="#d4a574" stroke-width="2"/>
    <circle cx="0" cy="0" r="50" fill="none" stroke="#d4a574" stroke-width="1.5"/>
    <circle cx="0" cy="0" r="30" fill="none" stroke="#d4a574" stroke-width="2"/>
    <circle cx="0" cy="0" r="18" fill="#d4a574" opacity="0.3"/>
    <circle cx="0" cy="0" r="10" fill="#d4a574"/>
    <g>
      <line x1="0" y1="-65" x2="0" y2="-50" stroke="#d4a574" stroke-width="1.5"/>
      <line x1="0" y1="65" x2="0" y2="50" stroke="#d4a574" stroke-width="1.5"/>
      <line x1="-65" y1="0" x2="-50" y2="0" stroke="#d4a574" stroke-width="1.5"/>
      <line x1="65" y1="0" x2="50" y2="0" stroke="#d4a574" stroke-width="1.5"/>
      <line x1="-46" y1="-46" x2="-35" y2="-35" stroke="#d4a574" stroke-width="1"/>
      <line x1="46" y1="-46" x2="35" y2="-35" stroke="#d4a574" stroke-width="1"/>
      <line x1="-46" y1="46" x2="-35" y2="35" stroke="#d4a574" stroke-width="1"/>
      <line x1="46" y1="46" x2="35" y2="35" stroke="#d4a574" stroke-width="1"/>
    </g>
    <text x="0" y="5" text-anchor="middle" fill="#0f0d2e" font-size="22" font-weight="bold">☉</text>
  </g>
  <path d="M150,135 L150,170" stroke="#d4a574" stroke-width="0.5" opacity="0.5"/>
  <path d="M105,360 L195,360" stroke="#d4a574" stroke-width="0.5" opacity="0.3"/>
</svg>