<svg xmlns="http://www.w3.org/2000/svg" viewBox="0 0 300 480" width="300" height="480">
  <defs>
    <linearGradient id="bg20" x1="0%" y1="0%" x2="0%" y2="100%">
      <stop offset="0%" style="stop-color:#1e1b4b"/>
      <stop offset="100%" style="stop-color:#0f0d2e"/>
    </linearGradient>
    <linearGradient id="goldGrad20" x1="0%" y1="0%" x2="100%" y2="100%">
      <stop offset="0%" style="stop-color:#d4a574"/>
      <stop offset="50%" style="stop-color:#f4d5a3"/>
      <stop offset="100%" style="stop-color:#b8956a"/>
    </linearGradient>
  </defs>
  <rect width="300" height="480" fill="url(#bg20)"/>
  <rect x="5" y="5" width="290" height="470" fill="none" stroke="url(#goldGrad20)" stroke-width="3" rx="8"/>
  <rect x="12" y="12" width="276" height="456" fill="none" stroke="url(#goldGrad20)" stroke-width="1" rx="5"/>
  <g fill="#d4a574" opacity="0.6">
    <circle cx="55" cy="70" r="2"/><circle cx="245" cy="70" r="2"/>
    <circle cx="50" cy="430" r="1.5"/><circle cx="250" cy="430" r="1.5"/>
  </g>
  <text x="150" y="35" text-anchor="middle" fill="#d4a574" font-family="serif" font-size="24" font-weight="bold">20</text>
  <text x="150" y="95" text-anchor="middle" fill="#d4a574" font-family="serif" font-size="28" font-weight="bold">审判</text>
  <text x="150" y="385" text-anchor="middle" fill="#d4a574" font-family="serif" font-size="22">JUDGEMENT</text>
  <text x="150" y="410" text-anchor="middle" fill="#d4a574" font-family="serif" font-size="11" opacity="0.7">MAJOR ARCANA</text>
  <g transform="translate(150, 250)">
    <ellipse cx="0" cy="-35" rx="45" ry="20" fill="none" stroke="#d4a574" stroke-width="2"/>
    <ellipse cx="0" cy="-35" rx="30" ry="12" fill="#d4a574" opacity="0.2"/>
    <line x1="0" y1="-55" x2="0" y2="-75" stroke="#d4a574" stroke-width="2"/>
    <line x1="-15" y1="-65" x2="15" y2="-65" stroke="#d4a574" stroke-width="1.5"/>
    <path d="M-20,-75 Q0,-90 20,-75" fill="none" stroke="#d4a574" stroke-width="2"/>
    <path d="M-12,-80 Q0,-100 12,-80" fill="none" stroke="#d4a574" stroke-width="1.5"/>
    <polygon points="0,-110 -5,-90 5,-90" fill="#d4a574"/>
    <rect x="-10" y="10" width="20" height="35" fill="none" stroke="#d4a574" stroke-width="2"/>
    <path d="M-10,45 L0,55 L10,45" fill="none" stroke="#d4a574" stroke-width="1.5"/>
    <line x1="-10" y1="25" x2="-10" y2="40" stroke="#d4a574" stroke-width="1"/>
    <line x1="10" y1="25" x2="10" y2="40" stroke="#d4a574" stroke-width="1"/>
    <line x1="0" y1="55" x2="0" y2="75" stroke="#d4a574" stroke-width="1.5"/>
    <circle cx="0" cy="75" r="6" fill="none" stroke="#d4a574" stroke-width="1"/>
  </g>
  <path d="M150,135 L150,170" stroke="#d4a574" stroke-width="0.5" opacity="0.5"/>
  <path d="M100,370 L200,370" stroke="#d4a574" stroke-width="0.5" opacity="0.3"/>
</svg>