<svg xmlns="http://www.w3.org/2000/svg" viewBox="0 0 300 480" width="300" height="480">
  <defs>
    <linearGradient id="bg21" x1="0%" y1="0%" x2="0%" y2="100%">
      <stop offset="0%" style="stop-color:#1e1b4b"/>
      <stop offset="100%" style="stop-color:#0f0d2e"/>
    </linearGradient>
    <linearGradient id="goldGrad21" x1="0%" y1="0%" x2="100%" y2="100%">
      <stop offset="0%" style="stop-color:#d4a574"/>
      <stop offset="50%" style="stop-color:#f4d5a3"/>
      <stop offset="100%" style="stop-color:#b8956a"/>
    </linearGradient>
  </defs>
  <rect width="300" height="480" fill="url(#bg21)"/>
  <rect x="5" y="5" width="290" height="470" fill="none" stroke="url(#goldGrad21)" stroke-width="3" rx="8"/>
  <rect x="12" y="12" width="276" height="456" fill="none" stroke="url(#goldGrad21)" stroke-width="1" rx="5"/>
  <g fill="#d4a574" opacity="0.6">
    <circle cx="55" cy="70" r="2"/><circle cx="245" cy="70" r="2"/>
    <circle cx="50" cy="430" r="1.5"/><circle cx="250" cy="430" r="1.5"/>
    <circle cx="80" cy="180" r="1"/><circle cx="220" cy="180" r="1"/>
  </g>
  <text x="150" y="35" text-anchor="middle" fill="#d4a574" font-family="serif" font-size="24" font-weight="bold">21</text>
  <text x="150" y="95" text-anchor="middle" fill="#d4a574" font-family="serif" font-size="28" font-weight="bold">世界</text>
  <text x="150" y="385" text-anchor="middle" fill="#d4a574" font-family="serif" font-size="22">THE WORLD</text>
  <text x="150" y="410" text-anchor="middle" fill="#d4a574" font-family="serif" font-size="11" opacity="0.7">MAJOR ARCANA</text>
  <g transform="translate(150, 250)">
    <circle cx="0" cy="0" r="70" fill="none" stroke="#d4a574" stroke-width="2"/>
    <circle cx="0" cy="0" r="55" fill="none" stroke="#d4a574" stroke-width="1"/>
    <ellipse cx="0" cy="0" rx="30" ry="45" fill="none" stroke="#d4a574" stroke-width="2" transform="rotate(45)"/>
    <ellipse cx="0" cy="0" rx="30" ry="45" fill="none" stroke="#d4a574" stroke-width="2" transform="rotate(-45)"/>
    <circle cx="0" cy="0" r="15" fill="none" stroke="#d4a574" stroke-width="2"/>
    <text x="0" y="8" text-anchor="middle" fill="#d4a574" font-size="28" font-weight="bold">⊕</text>
    <g opacity="0.6">
      <circle cx="0" cy="-70" r="2"/>
      <circle cx="0" cy="70" r="2"/>
      <circle cx="-70" cy="0" r="2"/>
      <circle cx="70" cy="0" r="2"/>
      <circle cx="-49" cy="-49" r="1.5"/>
      <circle cx="49" cy="-49" r="1.5"/>
      <circle cx="-49" cy="49" r="1.5"/>
      <circle cx="49" cy="49" r="1.5"/>
    </g>
  </g>
  <path d="M150,135 L150,170" stroke="#d4a574" stroke-width="0.5" opacity="0.5"/>
  <path d="M105,365 L195,365" stroke="#d4a574" stroke-width="0.5" opacity="0.3"/>
</svg>